<svg width="15" height="25" viewBox="0 0 15 25" fill="none" xmlns="http://www.w3.org/2000/svg">
<path fill-rule="evenodd" clip-rule="evenodd" d="M8.49694 1.69446C8.49694 1.14217 8.04923 0.694458 7.49694 0.694458C6.94466 0.694458 6.49694 1.14217 6.49694 1.69446V4.42848C6.44796 4.43099 6.39909 4.43382 6.35036 4.43697C5.24031 4.50864 4.10497 4.75046 3.18633 5.32264C2.22402 5.92202 1.54383 6.86096 1.38885 8.16573C1.26349 9.22112 1.38085 10.1418 1.74598 10.93C2.11233 11.7207 2.69095 12.2979 3.35426 12.7249C4.62314 13.5419 6.32913 13.8772 7.75713 14.1575L7.88579 14.1828C8.58715 14.3203 9.23673 14.4476 9.82937 14.6078C10.46 14.7783 10.9583 14.969 11.3259 15.2006C11.6791 15.423 11.8799 15.662 11.9838 15.9385C12.0913 16.2245 12.1393 16.6687 11.9663 17.3754C11.8252 17.9516 11.4303 18.3928 10.734 18.7224C10.0157 19.0624 9.04308 19.2446 7.94593 19.2793C5.72732 19.3495 3.38705 18.8111 2.38579 18.2834C1.8972 18.026 1.29239 18.2133 1.0349 18.7019C0.777419 19.1905 0.964766 19.7953 1.45336 20.0528C2.5598 20.6359 4.50542 21.118 6.49694 21.2497V24.0036C6.49694 24.5559 6.94466 25.0036 7.49694 25.0036C8.04923 25.0036 8.49694 24.5559 8.49694 24.0036V21.2541C9.58177 21.18 10.6671 20.9668 11.5897 20.5301C12.6728 20.0174 13.5877 19.1629 13.9089 17.851C14.1464 16.8808 14.1453 16.0045 13.8559 15.2348C13.563 14.4555 13.0192 13.9035 12.3918 13.5083C11.779 13.1223 11.0609 12.8689 10.3512 12.6771C9.68756 12.4977 8.97185 12.3575 8.2898 12.2239L8.14237 12.195C6.61756 11.8957 5.3224 11.6134 4.43693 11.0433C4.02307 10.7769 3.73623 10.4681 3.5607 10.0892C3.38395 9.70773 3.28303 9.17494 3.37489 8.40163C3.45354 7.73946 3.76191 7.32036 4.24372 7.02027C4.76919 6.69297 5.5335 6.49387 6.47922 6.43281C8.36789 6.31088 10.6018 6.76126 12.0024 7.23233C12.5259 7.40839 13.0929 7.12676 13.269 6.60329C13.4451 6.07982 13.1634 5.51274 12.64 5.33668C11.5684 4.97626 10.0571 4.6202 8.49694 4.47769V1.69446Z" fill="#F4C92E"/>
</svg>
