<svg width="15" height="17" viewBox="0 0 15 17" fill="none" xmlns="http://www.w3.org/2000/svg">
<path fill-rule="evenodd" clip-rule="evenodd" d="M10.816 0.806244C9.47106 0.506599 8.08226 0.678492 6.82981 1.29249C5.57983 1.90528 4.53145 2.92534 3.80188 4.20624C3.5287 4.68589 3.30393 5.1954 3.12964 5.72499H1.41248C0.998262 5.72499 0.662476 6.06077 0.662476 6.47499C0.662476 6.8892 0.998262 7.22499 1.41248 7.22499H2.7791C2.7189 7.64509 2.68836 8.07149 2.68836 8.49999C2.68836 8.92849 2.7189 9.35488 2.7791 9.77499H1.41248C0.998262 9.77499 0.662476 10.1108 0.662476 10.525C0.662476 10.9392 0.998262 11.275 1.41248 11.275H3.12964C3.30393 11.8046 3.5287 12.3141 3.80188 12.7937C4.53145 14.0746 5.57983 15.0947 6.82981 15.7075C8.08226 16.3215 9.47106 16.4934 10.816 16.1937C12.1591 15.8945 13.3786 15.1432 14.3295 14.0563C14.6022 13.7446 14.5706 13.2707 14.2588 12.998C13.947 12.7253 13.4732 12.7569 13.2005 13.0687C12.4424 13.9352 11.4967 14.5053 10.4898 14.7296C9.48472 14.9536 8.44331 14.8279 7.49009 14.3606C6.53441 13.8921 5.69984 13.0952 5.10529 12.0514C4.96368 11.8027 4.83752 11.5432 4.72748 11.275H9.51248C9.92669 11.275 10.2625 10.9392 10.2625 10.525C10.2625 10.1108 9.92669 9.77499 9.51248 9.77499H4.29756C4.22541 9.35813 4.18836 8.9311 4.18836 8.49999C4.18836 8.06887 4.22541 7.64184 4.29757 7.22499H9.51248C9.92669 7.22499 10.2625 6.8892 10.2625 6.47499C10.2625 6.06077 9.92669 5.72499 9.51248 5.72499H4.72749C4.83752 5.45675 4.96368 5.19726 5.10529 4.94862C5.69984 3.90476 6.53441 3.10786 7.49009 2.63935C8.44331 2.17204 9.48472 2.04642 10.4898 2.27035C11.4967 2.49468 12.4424 3.06475 13.2005 3.93131C13.4732 4.24307 13.947 4.2747 14.2588 4.00197C14.5706 3.72924 14.6022 3.25542 14.3295 2.94367C13.3786 1.85678 12.1591 1.10549 10.816 0.806244Z" fill="#F4C92E"/>
</svg>
